<svg width="148" height="163" viewBox="0 0 148 163" fill="none" xmlns="http://www.w3.org/2000/svg">
<path d="M73.3333 130.613C108.211 130.613 136.484 102.453 136.484 67.7161C136.484 32.9792 108.211 4.81934 73.3333 4.81934C38.456 4.81934 10.1824 32.9792 10.1824 67.7161C10.1824 102.453 38.456 130.613 73.3333 130.613Z" fill="#E8F1F6"/>
<path d="M50.2397 83.335H61.2685" stroke="#EE781D" stroke-width="3" stroke-miterlimit="10"/>
<path d="M50.2397 86.501H61.2685" stroke="#EE781D" stroke-width="3" stroke-miterlimit="10"/>
<path d="M50.2397 89.666H61.2685" stroke="#EE781D" stroke-width="3" stroke-miterlimit="10"/>
<path d="M29.6648 28.6777H40.6936" stroke="#407BA4" stroke-width="3" stroke-miterlimit="10" stroke-linecap="round"/>
<path d="M29.6648 31.8438H40.6936" stroke="#407BA4" stroke-width="3" stroke-miterlimit="10" stroke-linecap="round"/>
<path d="M29.6648 35.0098H40.6936" stroke="#407BA4" stroke-width="3" stroke-miterlimit="10" stroke-linecap="round"/>
<path d="M128.971 79.4619H140" stroke="#407BA4" stroke-width="3" stroke-miterlimit="10" stroke-linecap="round"/>
<path d="M128.971 82.6279H140" stroke="#407BA4" stroke-width="3" stroke-miterlimit="10" stroke-linecap="round"/>
<path d="M128.971 85.793H140" stroke="#407BA4" stroke-width="3" stroke-miterlimit="10" stroke-linecap="round"/>
<path d="M14.4077 127.447H25.4362" stroke="#407BA4" stroke-width="3" stroke-miterlimit="10" stroke-linecap="round"/>
<path d="M14.4077 130.613H25.4362" stroke="#407BA4" stroke-width="3" stroke-miterlimit="10" stroke-linecap="round"/>
<path d="M14.4077 133.779H25.4362" stroke="#407BA4" stroke-width="3" stroke-miterlimit="10" stroke-linecap="round"/>
<path d="M16.0485 84.0416C19.1461 84.0416 21.6573 81.5405 21.6573 78.4554C21.6573 75.3702 19.1461 72.8691 16.0485 72.8691C12.9508 72.8691 10.4397 75.3702 10.4397 78.4554C10.4397 81.5405 12.9508 84.0416 16.0485 84.0416Z" fill="#C8DCEA"/>
<path d="M17.453 70.0598C19.0665 70.0598 20.3745 68.757 20.3745 67.15C20.3745 65.543 19.0665 64.2402 17.453 64.2402C15.8395 64.2402 14.5315 65.543 14.5315 67.15C14.5315 68.757 15.8395 70.0598 17.453 70.0598Z" fill="#C8DCEA"/>
<path d="M27.7352 69.1381C28.6659 69.1381 29.4204 68.3866 29.4204 67.4597C29.4204 66.5327 28.6659 65.7812 27.7352 65.7812C26.8045 65.7812 26.05 66.5327 26.05 67.4597C26.05 68.3866 26.8045 69.1381 27.7352 69.1381Z" fill="#C8DCEA"/>
<path d="M28.7358 80.7975C30.967 80.7975 32.7758 78.996 32.7758 76.7737C32.7758 74.5515 30.967 72.75 28.7358 72.75C26.5046 72.75 24.6958 74.5515 24.6958 76.7737C24.6958 78.996 26.5046 80.7975 28.7358 80.7975Z" fill="#C8DCEA"/>
<path d="M123.649 146.012C126.747 146.012 129.258 143.511 129.258 140.426C129.258 137.341 126.747 134.84 123.649 134.84C120.551 134.84 118.04 137.341 118.04 140.426C118.04 143.511 120.551 146.012 123.649 146.012Z" fill="#C8DCEA"/>
<path d="M115.806 135.044C117.42 135.044 118.728 133.741 118.728 132.134C118.728 130.527 117.42 129.225 115.806 129.225C114.193 129.225 112.885 130.527 112.885 132.134C112.885 133.741 114.193 135.044 115.806 135.044Z" fill="#C8DCEA"/>
<path d="M122.607 126.125C123.538 126.125 124.292 125.374 124.292 124.447C124.292 123.52 123.538 122.769 122.607 122.769C121.676 122.769 120.922 123.52 120.922 124.447C120.922 125.374 121.676 126.125 122.607 126.125Z" fill="#C8DCEA"/>
<path d="M130.445 133.647C132.676 133.647 134.485 131.846 134.485 129.623C134.485 127.401 132.676 125.6 130.445 125.6C128.214 125.6 126.405 127.401 126.405 129.623C126.405 131.846 128.214 133.647 130.445 133.647Z" fill="#C8DCEA"/>
<path d="M118.039 51.6011C121.136 51.6011 123.648 49.1001 123.648 46.0149C123.648 42.9297 121.136 40.4287 118.039 40.4287C114.941 40.4287 112.43 42.9297 112.43 46.0149C112.43 49.1001 114.941 51.6011 118.039 51.6011Z" fill="#C8DCEA"/>
<path d="M107.927 40.633C109.541 40.633 110.849 39.3303 110.849 37.7232C110.849 36.1162 109.541 34.8135 107.927 34.8135C106.314 34.8135 105.006 36.1162 105.006 37.7232C105.006 39.3303 106.314 40.633 107.927 40.633Z" fill="#C8DCEA"/>
<path d="M118.97 38.8365C121.202 38.8365 123.01 37.0351 123.01 34.8128C123.01 32.5906 121.202 30.7891 118.97 30.7891C116.739 30.7891 114.93 32.5906 114.93 34.8128C114.93 37.0351 116.739 38.8365 118.97 38.8365Z" fill="#C8DCEA"/>
<path d="M55.1108 122.235C58.2084 122.235 60.7195 119.734 60.7195 116.649C60.7195 113.564 58.2084 111.062 55.1108 111.062C52.0131 111.062 49.502 113.564 49.502 116.649C49.502 119.734 52.0131 122.235 55.1108 122.235Z" fill="#EE781D"/>
<path d="M47.2672 111.267C48.8807 111.267 50.1887 109.964 50.1887 108.357C50.1887 106.75 48.8807 105.447 47.2672 105.447C45.6537 105.447 44.3457 106.75 44.3457 108.357C44.3457 109.964 45.6537 111.267 47.2672 111.267Z" fill="#EE781D"/>
<path d="M54.0685 102.348C54.9992 102.348 55.7537 101.597 55.7537 100.67C55.7537 99.7427 54.9992 98.9912 54.0685 98.9912C53.1378 98.9912 52.3833 99.7427 52.3833 100.67C52.3833 101.597 53.1378 102.348 54.0685 102.348Z" fill="#EE781D"/>
<path d="M61.9065 109.87C64.1377 109.87 65.9465 108.068 65.9465 105.846C65.9465 103.624 64.1377 101.822 61.9065 101.822C59.6752 101.822 57.8665 103.624 57.8665 105.846C57.8665 108.068 59.6752 109.87 61.9065 109.87Z" fill="#EE781D"/>
<path d="M68.9462 44.5039C80.414 28.4091 87.5333 13.8229 84.8476 11.9246L81.7705 9.74975C79.0847 7.85145 67.611 19.3601 56.1432 35.4549C44.6754 51.5497 37.5561 66.1359 40.242 68.0342L43.319 70.209C46.0047 72.1073 57.4783 60.5987 68.9462 44.5039Z" fill="#77420F"/>
<path d="M65.8689 42.3297C77.3366 26.2349 84.4557 11.6486 81.7699 9.75035C79.0842 7.8521 67.6106 19.3607 56.1429 35.4555C44.6753 51.5502 37.5562 66.1365 40.2419 68.0348C42.9277 69.933 54.4013 58.4244 65.8689 42.3297Z" fill="#FF7E17"/>
<path d="M63.309 30.316C66.4994 32.5709 57.102 45.7599 53.9116 43.505C50.7213 41.2501 50.2387 36.4697 52.8337 32.8276C55.4287 29.1856 60.1187 28.0611 63.309 30.316Z" fill="#77420F"/>
<path d="M40.6938 80.2686L49.1161 153.65H49.2074C49.2074 156.152 61.4594 158.18 76.5728 158.18C91.6861 158.18 103.938 156.152 103.938 153.65H104.03L112.452 80.2686H40.6938Z" fill="#FF7E17"/>
<path d="M76.5727 86.2082C96.388 86.2082 112.451 83.5492 112.451 80.2692C112.451 76.9891 96.388 74.3301 76.5727 74.3301C56.7573 74.3301 40.6938 76.9891 40.6938 80.2692C40.6938 83.5492 56.7573 86.2082 76.5727 86.2082Z" fill="#77420F"/>
<path d="M78.3937 96.75H76.7831C76.3814 96.75 76.0557 97.0744 76.0557 97.4745V149.329C76.0557 149.729 76.3814 150.053 76.7831 150.053H78.3937C78.7955 150.053 79.1212 149.729 79.1212 149.329V97.4745C79.1212 97.0744 78.7955 96.75 78.3937 96.75Z" fill="#77420F"/>
<path d="M93.9361 150.125L91.9979 149.858C91.6885 149.815 91.4549 149.277 91.4761 148.656L93.2159 97.7271C93.2372 97.1059 93.5052 96.6368 93.8145 96.6794L95.7527 96.9464C96.0621 96.989 96.2957 97.5271 96.2745 98.1483L94.5347 149.077C94.5135 149.699 94.2455 150.168 93.9361 150.125ZM60.1254 150.125L62.0635 149.858C62.3729 149.815 62.6065 149.277 62.5853 148.656L60.8455 97.7271C60.8243 97.1059 60.5563 96.6368 60.2469 96.6794L58.3087 96.9464C57.9994 96.989 57.7658 97.5271 57.787 98.1483L59.5268 149.077C59.548 149.699 59.816 150.168 60.1254 150.125Z" fill="#77420F"/>
<path d="M92.3272 70.874L89.8029 79.398L67.9825 72.988C67.8664 72.9539 67.7582 72.8973 67.6641 72.8215C67.5699 72.7458 67.4916 72.6523 67.4337 72.5464C67.3759 72.4405 67.3395 72.3243 67.3267 72.2044C67.3139 72.0845 67.3249 71.9633 67.3592 71.8477L77.5711 37.3644C77.6054 37.2488 77.6622 37.141 77.7382 37.0472C77.8143 36.9534 77.9082 36.8755 78.0145 36.8178C78.1208 36.7602 78.2375 36.7239 78.3578 36.7112C78.4782 36.6985 78.5999 36.7095 78.716 36.7436L108.246 45.4184C108.362 45.4525 108.47 45.509 108.565 45.5848C108.659 45.6606 108.737 45.7541 108.795 45.86C108.853 45.9658 108.889 46.082 108.902 46.2019C108.915 46.3218 108.904 46.443 108.869 46.5587L100.921 73.3986L92.3272 70.874Z" fill="#C8DCEA"/>
<path d="M89.8027 79.3979L92.327 70.874L100.921 73.3983L89.8027 79.3979Z" fill="#004677"/>
<path d="M91.5343 47.6555L80.6594 44.4609L79.1952 49.4055L90.07 52.6L91.5343 47.6555Z" fill="#004677"/>
<path d="M93.5073 50.9219L101.836 53.3687" stroke="#004677" stroke-width="3" stroke-miterlimit="10"/>
<path d="M74.3882 66.0264L82.717 68.4728" stroke="#004677" stroke-width="3" stroke-miterlimit="10"/>
<path d="M78.053 53.2617L99.9618 59.6978" stroke="#004677" stroke-width="3" stroke-miterlimit="10"/>
<path d="M76.7959 57.5059L98.7047 63.942" stroke="#004677" stroke-width="3" stroke-miterlimit="10"/>
<path d="M75.5391 61.75L97.4479 68.1861" stroke="#004677" stroke-width="3" stroke-miterlimit="10"/>
</svg>
