<svg width="90" height="90" viewBox="0 0 90 90" fill="none" xmlns="http://www.w3.org/2000/svg">
<path d="M75.1289 23.3086L61.0664 9.24609C60.5306 8.72375 59.8108 8.43328 59.0625 8.4375H30.9375C29.4457 8.4375 28.0149 9.03013 26.96 10.085C25.9051 11.1399 25.3125 12.5707 25.3125 14.0625V19.6875H19.6875C18.1957 19.6875 16.7649 20.2801 15.71 21.335C14.6551 22.3899 14.0625 23.8207 14.0625 25.3125V75.9375C14.0625 77.4293 14.6551 78.8601 15.71 79.915C16.7649 80.9699 18.1957 81.5625 19.6875 81.5625H59.0625C60.5543 81.5625 61.9851 80.9699 63.04 79.915C64.0949 78.8601 64.6875 77.4293 64.6875 75.9375V70.3125H70.3125C71.8043 70.3125 73.2351 69.7199 74.29 68.665C75.3449 67.6101 75.9375 66.1793 75.9375 64.6875V25.3125C75.9417 24.5642 75.6513 23.8444 75.1289 23.3086V23.3086ZM47.8125 67.5H30.9375C30.1916 67.5 29.4762 67.2037 28.9488 66.6762C28.4213 66.1488 28.125 65.4334 28.125 64.6875C28.125 63.9416 28.4213 63.2262 28.9488 62.6988C29.4762 62.1713 30.1916 61.875 30.9375 61.875H47.8125C48.5584 61.875 49.2738 62.1713 49.8012 62.6988C50.3287 63.2262 50.625 63.9416 50.625 64.6875C50.625 65.4334 50.3287 66.1488 49.8012 66.6762C49.2738 67.2037 48.5584 67.5 47.8125 67.5ZM47.8125 56.25H30.9375C30.1916 56.25 29.4762 55.9537 28.9488 55.4262C28.4213 54.8988 28.125 54.1834 28.125 53.4375C28.125 52.6916 28.4213 51.9762 28.9488 51.4488C29.4762 50.9213 30.1916 50.625 30.9375 50.625H47.8125C48.5584 50.625 49.2738 50.9213 49.8012 51.4488C50.3287 51.9762 50.625 52.6916 50.625 53.4375C50.625 54.1834 50.3287 54.8988 49.8012 55.4262C49.2738 55.9537 48.5584 56.25 47.8125 56.25ZM70.3125 64.6875H64.6875V36.5625C64.6917 35.8142 64.4013 35.0944 63.8789 34.5586L49.8164 20.4961C49.2806 19.9737 48.5608 19.6833 47.8125 19.6875H30.9375V14.0625H57.9023L70.3125 26.4727V64.6875Z" fill="#004677"/>
</svg>
