<svg width="40" height="40" viewBox="0 0 40 40" fill="none" xmlns="http://www.w3.org/2000/svg">
<path fill-rule="evenodd" clip-rule="evenodd" d="M8.83662 6.875C4.01116 12.9805 3.73159 21.6881 7.99513 28.0985L18.5661 17.0459L8.83662 6.875ZM20.523 19.0928L9.76413 30.3409C9.81742 30.3986 9.86697 30.4582 9.9212 30.5149C10.5317 31.1523 11.1769 31.73 11.851 32.25L22.4809 21.1368L20.5239 19.0918L20.523 19.0928Z" fill="white"/>
<path fill-rule="evenodd" clip-rule="evenodd" d="M36.4699 7.82543C35.9586 7.1309 35.3896 6.46435 34.7608 5.83542C28.2727 -0.665163 17.9244 -0.931398 11.1147 5.02417L25.1895 19.125L36.4699 7.82543Z" fill="white"/>
<path fill-rule="evenodd" clip-rule="evenodd" d="M14.612 33.8938C21.1724 37.1873 29.3676 36.0992 34.8417 30.6207C40.3168 25.1413 41.4031 16.9406 38.1122 10.375L14.613 33.8938H14.612Z" fill="white"/>
<path fill-rule="evenodd" clip-rule="evenodd" d="M8.24536 31.63C4.53487 27.9166 2.49169 22.9787 2.49169 17.7274C2.49169 12.474 4.53487 7.53623 8.24536 3.82273L6.92404 2.5C2.86081 6.56758 0.622955 11.9733 0.622955 17.7264C0.622955 23.4795 2.86081 28.8862 6.92404 32.9537C11.1164 37.1506 16.6253 39.25 22.1342 39.25C27.6421 39.25 33.15 37.1516 37.3443 32.9537L36.0229 31.63C28.3639 39.2973 15.9034 39.2973 8.24536 31.63Z" fill="white"/>
</svg>
