<svg width="160" height="42" viewBox="0 0 160 42" fill="none" xmlns="http://www.w3.org/2000/svg">
<path fill-rule="evenodd" clip-rule="evenodd" d="M10.8366 7.875C6.01113 13.9805 5.73156 22.6881 9.9951 29.0985L20.5661 18.0459L10.8366 7.875ZM22.523 20.0928L11.7641 31.3409C11.8174 31.3986 11.8669 31.4582 11.9212 31.5149C12.5317 32.1523 13.1769 32.73 13.851 33.25L24.4808 22.1368L22.5239 20.0918L22.523 20.0928Z" fill="white"/>
<path fill-rule="evenodd" clip-rule="evenodd" d="M38.4699 8.82543C37.9586 8.1309 37.3896 7.46435 36.7608 6.83542C30.2727 0.334837 19.9244 0.0686017 13.1147 6.02417L27.1895 20.125L38.4699 8.82543Z" fill="white"/>
<path fill-rule="evenodd" clip-rule="evenodd" d="M16.6121 34.8938C23.1725 38.1873 31.3676 37.0992 36.8417 31.6207C42.3168 26.1413 43.4031 17.9406 40.1122 11.375L16.613 34.8938H16.6121Z" fill="white"/>
<path fill-rule="evenodd" clip-rule="evenodd" d="M10.2453 32.63C6.53484 28.9166 4.49166 23.9787 4.49166 18.7274C4.49166 13.474 6.53484 8.53623 10.2453 4.82273L8.92401 3.5C4.86078 7.56757 2.62292 12.9733 2.62292 18.7264C2.62292 24.4795 4.86078 29.8862 8.92401 33.9537C13.1164 38.1506 18.6252 40.25 24.1341 40.25C29.642 40.25 35.1499 38.1516 39.3442 33.9537L38.0229 32.63C30.3639 40.2973 17.9034 40.2973 10.2453 32.63Z" fill="white"/>
<path fill-rule="evenodd" clip-rule="evenodd" d="M56.4639 7.49608H53.0883C53.0478 7.49608 53.0275 7.51545 53.0275 7.55611V10.827C53.0275 10.8667 53.0478 10.887 53.0883 10.887H55.1599C55.2593 10.887 55.3094 10.9373 55.3094 11.038V11.987C55.3094 12.0877 55.2593 12.138 55.1599 12.138H53.0883C53.0478 12.138 53.0275 12.1574 53.0275 12.198V15.4834C53.0275 15.5241 53.0478 15.5434 53.0883 15.5434H56.4639C56.5632 15.5434 56.6134 15.5938 56.6134 15.6945V16.6434C56.6134 16.7441 56.5632 16.7944 56.4639 16.7944H51.7352C51.6349 16.7944 51.5847 16.7441 51.5847 16.6434V6.39612C51.5847 6.29542 51.6349 6.24507 51.7352 6.24507H56.4639C56.5632 6.24507 56.6134 6.29542 56.6134 6.39612V7.34503C56.6134 7.44573 56.5632 7.49608 56.4639 7.49608ZM61.5745 9.12376H62.7154C62.8148 9.12376 62.8649 9.17411 62.8649 9.27481V16.6434C62.8649 16.7441 62.8148 16.7944 62.7154 16.7944H61.5745C61.4742 16.7944 61.424 16.7441 61.424 16.6434V16.2077C61.424 16.1767 61.4163 16.1612 61.4018 16.1612C61.3864 16.1612 61.3691 16.1709 61.3488 16.1922C61.0489 16.6637 60.5676 16.9 59.9079 16.9C59.3071 16.9 58.8219 16.716 58.4516 16.35C58.0812 15.983 57.8961 15.4234 57.8961 14.67V9.27481C57.8961 9.17411 57.9462 9.12376 58.0465 9.12376H59.1875C59.2878 9.12376 59.3379 9.17411 59.3379 9.27481V14.3534C59.3379 15.2171 59.6774 15.649 60.3583 15.649C60.6988 15.649 60.9611 15.526 61.1463 15.2801C61.3314 15.0341 61.424 14.6952 61.424 14.2634V9.27384C61.424 9.17314 61.4742 9.12376 61.5745 9.12376ZM67.9292 9.2138C67.9996 9.25447 68.0247 9.32032 68.0045 9.41037L67.7797 10.5558C67.7701 10.6459 67.7093 10.6759 67.5994 10.6459C67.4692 10.5955 67.3197 10.5704 67.149 10.5704C67.039 10.5704 66.959 10.5752 66.9079 10.5859C66.5993 10.6256 66.3408 10.8018 66.1363 11.1126C65.9309 11.4244 65.8277 11.801 65.8277 12.2435V16.6434C65.8277 16.7441 65.7775 16.7944 65.6782 16.7944H64.5363C64.436 16.7944 64.3858 16.7441 64.3858 16.6434V9.27481C64.3858 9.17411 64.436 9.12376 64.5363 9.12376H65.6772C65.7766 9.12376 65.8267 9.17411 65.8267 9.27481V10.1482C65.8267 10.1782 65.8344 10.1966 65.8499 10.2014C65.8643 10.2063 65.8769 10.1937 65.8875 10.1627C66.1768 9.42005 66.6427 9.0492 67.283 9.0492C67.5338 9.0492 67.7489 9.10342 67.9292 9.2138ZM72.2837 15.3101C72.4891 15.0845 72.5923 14.7901 72.5923 14.4289V11.4883C72.5923 11.1271 72.4891 10.8308 72.2837 10.5994C72.0783 10.369 71.816 10.2528 71.4958 10.2528C71.1756 10.2528 70.9123 10.369 70.7078 10.5994C70.5024 10.8318 70.3992 11.1271 70.3992 11.4883V14.427C70.3992 14.7891 70.5024 15.0835 70.7078 15.3091C70.9123 15.5347 71.1756 15.648 71.4958 15.648C71.816 15.648 72.0783 15.5357 72.2837 15.3101ZM69.6411 16.2658C69.1869 15.8339 68.9593 15.2568 68.9593 14.5326V11.4002C68.9593 10.6866 69.1888 10.1095 69.6498 9.66696C70.1098 9.22542 70.7252 9.00369 71.4958 9.00369C72.277 9.00369 72.8942 9.22542 73.3494 9.66696C73.8047 10.1095 74.0323 10.6866 74.0323 11.4002V14.5345C74.0323 15.2588 73.8047 15.8359 73.3494 16.2677C72.8942 16.7005 72.276 16.9165 71.4958 16.9165C70.7146 16.9165 70.0973 16.7005 69.6421 16.2677M78.7822 10.5926C78.5816 10.367 78.3212 10.2537 78.001 10.2537C77.6808 10.2537 77.4233 10.367 77.2284 10.5926C77.0336 10.8192 76.9353 11.1126 76.9353 11.4738V14.4289C76.9353 14.7901 77.0336 15.0874 77.2284 15.3178C77.4233 15.5492 77.6817 15.6645 78.0019 15.6645C78.3212 15.6645 78.5816 15.5483 78.7822 15.3178C78.9818 15.0864 79.0821 14.7901 79.0821 14.4289V11.4747C79.0821 11.1126 78.9818 10.8192 78.7822 10.5936M79.9752 9.65147C80.3407 10.0833 80.523 10.6604 80.523 11.3847V14.519C80.523 15.2626 80.3378 15.8455 79.9675 16.2667C79.5971 16.6889 79.0869 16.9 78.4369 16.9C78.1765 16.9 77.919 16.8477 77.6634 16.7422C77.4088 16.6357 77.186 16.473 76.996 16.2522C76.9758 16.2328 76.9574 16.227 76.943 16.2367C76.9285 16.2464 76.9208 16.2619 76.9208 16.2822V19.5221C76.9208 19.6228 76.8706 19.6731 76.7703 19.6731H75.6304C75.53 19.6731 75.4799 19.6228 75.4799 19.5221V9.27481C75.4799 9.17411 75.53 9.12376 75.6304 9.12376H76.7703C76.8706 9.12376 76.9208 9.17411 76.9208 9.27481V9.62145C76.9208 9.64082 76.9304 9.6534 76.9507 9.65824C76.97 9.66405 76.9902 9.65147 77.0105 9.62145C77.2005 9.41037 77.4213 9.2535 77.6711 9.15377C77.9219 9.05307 78.1765 9.00272 78.4369 9.00272C79.0975 9.00272 79.6106 9.21961 79.9752 9.65147ZM83.5687 10.6004C83.3691 10.8328 83.2698 11.1281 83.2698 11.4893V12.2881C83.2698 12.3288 83.289 12.3491 83.3286 12.3491H85.3858C85.4243 12.3491 85.4455 12.3288 85.4455 12.2881V11.4893C85.4455 11.1281 85.3452 10.8318 85.1456 10.6004C84.945 10.3699 84.6798 10.2537 84.3499 10.2537C84.0288 10.2537 83.7693 10.3699 83.5687 10.6004ZM86.7215 13.5536H83.3286C83.289 13.5536 83.2688 13.5749 83.2688 13.6146V14.428C83.2688 14.7901 83.3691 15.0864 83.5687 15.3178C83.7693 15.5492 84.0288 15.6645 84.3499 15.6645C84.6296 15.6645 84.865 15.5793 85.0549 15.4079C85.2449 15.2375 85.3655 15.0157 85.4157 14.7446C85.4446 14.6642 85.5005 14.6245 85.5796 14.6245L86.6916 14.6846C86.7418 14.6846 86.7784 14.7001 86.8035 14.7301C86.8286 14.7591 86.8363 14.795 86.8266 14.8356C86.7562 15.4882 86.5084 15.9976 86.084 16.3655C85.6577 16.7315 85.08 16.9155 84.3499 16.9155C83.5784 16.9155 82.966 16.6996 82.5107 16.2667C82.0555 15.8349 81.8279 15.2578 81.8279 14.5335V11.4002C81.8279 10.6866 82.0555 10.1095 82.5107 9.66696C82.966 9.22542 83.5784 9.00369 84.3499 9.00369C85.1302 9.00369 85.7455 9.22542 86.1959 9.66696C86.6463 10.1095 86.871 10.6866 86.871 11.4002V13.4045C86.871 13.5052 86.8209 13.5556 86.7215 13.5556M91.4492 15.3178C91.7096 15.0971 91.8399 14.7853 91.8399 14.3834V13.358C91.8399 13.3193 91.8206 13.298 91.7801 13.298H90.8638C90.4636 13.298 90.1434 13.4064 89.9032 13.6224C89.6631 13.8383 89.5435 14.152 89.5435 14.5645C89.5435 14.9257 89.6332 15.1968 89.8135 15.3779C89.9939 15.5589 90.234 15.649 90.534 15.649C90.8841 15.649 91.1888 15.5386 91.4492 15.3178ZM92.5825 9.69601C93.0473 10.1588 93.2798 10.766 93.2798 11.5202V16.6434C93.2798 16.7441 93.2296 16.7944 93.1303 16.7944H91.9893C91.889 16.7944 91.8389 16.7441 91.8389 16.6434V16.3122C91.8389 16.2929 91.8312 16.2774 91.8167 16.2667C91.8013 16.2571 91.7839 16.2619 91.7637 16.2822C91.4136 16.7044 90.8985 16.9155 90.2176 16.9155C89.6477 16.9155 89.1442 16.7518 88.7092 16.4255C88.2743 16.0992 88.0563 15.5183 88.0563 14.6846C88.0563 13.8102 88.3186 13.1702 88.8443 12.7635C89.3699 12.3568 90.0575 12.1535 90.9082 12.1535H91.7791C91.8186 12.1535 91.8389 12.1332 91.8389 12.0925V11.6558C91.8389 11.2336 91.7386 10.8947 91.5389 10.6391C91.3383 10.3825 91.0779 10.2537 90.7577 10.2537C90.5079 10.2537 90.2977 10.3389 90.128 10.5103C89.9572 10.6807 89.8579 10.9025 89.827 11.1736C89.827 11.2733 89.7779 11.3237 89.6776 11.3237H88.4623C88.3611 11.3237 88.3119 11.2733 88.3119 11.1736C88.3611 10.5307 88.6167 10.0078 89.0767 9.60596C89.5367 9.20412 90.1077 9.00272 90.7886 9.00272C91.5187 9.00272 92.1166 9.23511 92.5825 9.69601ZM99.2246 9.65824C99.5603 10.0862 99.7281 10.6914 99.7281 11.4747V16.6434C99.7281 16.7441 99.6779 16.7944 99.5776 16.7944H98.4367C98.3364 16.7944 98.2872 16.7441 98.2872 16.6434V11.5948C98.2872 11.1736 98.1965 10.8463 98.0171 10.6159C97.8368 10.3845 97.586 10.2692 97.2658 10.2692C96.9157 10.2692 96.6457 10.3922 96.4557 10.6381C96.2657 10.8841 96.1702 11.2239 96.1702 11.6548V16.6434C96.1702 16.7441 96.1201 16.7944 96.0198 16.7944H94.8798C94.7795 16.7944 94.7293 16.7441 94.7293 16.6434V9.27481C94.7293 9.17411 94.7795 9.12376 94.8798 9.12376H96.0198C96.1201 9.12376 96.1702 9.17411 96.1702 9.27481V9.66599C96.1702 9.68632 96.1799 9.69891 96.2001 9.70472C96.2194 9.70859 96.2406 9.70182 96.2609 9.68148C96.6206 9.23898 97.126 9.01821 97.777 9.01821C98.4068 9.01821 98.89 9.23123 99.2246 9.65824ZM105.499 16.1689C105.005 15.6722 104.757 15.0109 104.757 14.1869V8.83715C104.757 8.01411 105.005 7.35568 105.499 6.86283C105.995 6.37094 106.647 6.125 107.458 6.125C108.279 6.125 108.937 6.37094 109.432 6.86283C109.928 7.35568 110.175 8.01314 110.175 8.83811V9.07825C110.175 9.17895 110.125 9.2293 110.025 9.2293L108.885 9.28933C108.784 9.28933 108.734 9.23898 108.734 9.13828V8.7471C108.734 8.33461 108.616 8.00346 108.381 7.75267C108.147 7.50092 107.839 7.37505 107.458 7.37505C107.078 7.37505 106.773 7.50092 106.542 7.75267C106.312 8.00346 106.198 8.33461 106.198 8.7471V14.2924C106.198 14.7049 106.313 15.0361 106.543 15.2878C106.772 15.5396 107.078 15.6645 107.459 15.6645C107.839 15.6645 108.147 15.5386 108.381 15.2868C108.616 15.0361 108.734 14.7049 108.734 14.2924V13.9012C108.734 13.8005 108.784 13.7502 108.885 13.7502L110.025 13.8102C110.125 13.8102 110.175 13.8606 110.175 13.9613V14.1869C110.175 15.0109 109.928 15.6722 109.432 16.1689C108.937 16.6666 108.279 16.9145 107.458 16.9145C106.648 16.9145 105.994 16.6666 105.499 16.1689ZM113.258 10.6004C113.058 10.8328 112.958 11.1281 112.958 11.4893V12.2881C112.958 12.3288 112.978 12.3491 113.018 12.3491H115.074C115.115 12.3491 115.135 12.3288 115.135 12.2881V11.4893C115.135 11.1281 115.035 10.8318 114.834 10.6004C114.635 10.3699 114.369 10.2537 114.039 10.2537C113.718 10.2537 113.459 10.3699 113.258 10.6004ZM116.411 13.5536H113.018C112.979 13.5536 112.958 13.5749 112.958 13.6146V14.428C112.958 14.7901 113.058 15.0864 113.258 15.3178C113.459 15.5492 113.718 15.6645 114.04 15.6645C114.319 15.6645 114.555 15.5793 114.744 15.4079C114.935 15.2375 115.054 15.0157 115.105 14.7446C115.134 14.6642 115.19 14.6245 115.269 14.6245L116.381 14.6846C116.43 14.6846 116.468 14.7001 116.493 14.7301C116.518 14.7591 116.526 14.795 116.515 14.8356C116.446 15.4882 116.198 15.9976 115.773 16.3655C115.347 16.7315 114.77 16.9155 114.039 16.9155C113.268 16.9155 112.656 16.6996 112.2 16.2667C111.745 15.8349 111.518 15.2578 111.518 14.5335V11.4002C111.518 10.6866 111.745 10.1095 112.2 9.66696C112.656 9.22542 113.268 9.00369 114.039 9.00369C114.82 9.00369 115.435 9.22542 115.885 9.66696C116.336 10.1095 116.561 10.6866 116.561 11.4002V13.4045C116.561 13.5052 116.51 13.5556 116.411 13.5556M122.409 9.65824C122.745 10.0862 122.912 10.6914 122.912 11.4747V16.6434C122.912 16.7441 122.862 16.7944 122.762 16.7944H121.621C121.521 16.7944 121.471 16.7441 121.471 16.6434V11.5948C121.471 11.1736 121.381 10.8463 121.201 10.6159C121.02 10.3845 120.77 10.2692 120.45 10.2692C120.1 10.2692 119.829 10.3922 119.64 10.6381C119.449 10.8841 119.355 11.2239 119.355 11.6548V16.6434C119.355 16.7441 119.304 16.7944 119.204 16.7944H118.063C117.963 16.7944 117.914 16.7441 117.914 16.6434V9.27481C117.914 9.17411 117.963 9.12376 118.063 9.12376H119.204C119.304 9.12376 119.355 9.17411 119.355 9.27481V9.66599C119.355 9.68632 119.364 9.69891 119.384 9.70472C119.404 9.70859 119.424 9.70182 119.444 9.68148C119.805 9.23898 120.31 9.01821 120.96 9.01821C121.591 9.01821 122.073 9.23123 122.409 9.65824ZM127.322 10.1782H126.271C126.231 10.1782 126.211 10.1985 126.211 10.2392V14.4735C126.211 14.8753 126.281 15.1542 126.421 15.3101C126.562 15.466 126.782 15.5386 127.082 15.5289H127.217C127.317 15.5289 127.367 15.5793 127.367 15.679V16.6434C127.367 16.7441 127.317 16.7944 127.217 16.7944H126.752C126.112 16.7944 125.628 16.6686 125.303 16.4178C124.977 16.166 124.815 15.6896 124.815 14.9857V10.2392C124.815 10.1985 124.795 10.1782 124.756 10.1782H124.17C124.07 10.1782 124.02 10.1288 124.02 10.0281V9.27481C124.02 9.17411 124.07 9.12376 124.17 9.12376H124.756C124.795 9.12376 124.815 9.10439 124.815 9.06372V7.35955C124.815 7.25982 124.865 7.20947 124.966 7.20947H126.061C126.161 7.20947 126.211 7.25982 126.211 7.36052V9.06372C126.211 9.10342 126.231 9.12376 126.272 9.12376H127.323C127.422 9.12376 127.472 9.17411 127.472 9.27481V10.0281C127.472 10.1288 127.422 10.1782 127.322 10.1782ZM130.289 10.6004C130.088 10.8328 129.988 11.1281 129.988 11.4893V12.2881C129.988 12.3288 130.007 12.3491 130.047 12.3491H132.105C132.144 12.3491 132.164 12.3288 132.164 12.2881V11.4893C132.164 11.1281 132.064 10.8318 131.864 10.6004C131.664 10.3699 131.399 10.2537 131.069 10.2537C130.749 10.2537 130.489 10.3699 130.289 10.6004ZM133.44 13.5536H130.047C130.008 13.5536 129.988 13.5749 129.988 13.6146V14.428C129.988 14.7901 130.088 15.0864 130.289 15.3178C130.488 15.5492 130.749 15.6645 131.069 15.6645C131.348 15.6645 131.584 15.5793 131.774 15.4079C131.964 15.2375 132.084 15.0157 132.135 14.7446C132.164 14.6642 132.219 14.6245 132.299 14.6245L133.41 14.6846C133.461 14.6846 133.497 14.7001 133.523 14.7301C133.547 14.7591 133.555 14.795 133.546 14.8356C133.475 15.4882 133.227 15.9976 132.803 16.3655C132.377 16.7315 131.799 16.9155 131.069 16.9155C130.297 16.9155 129.685 16.6996 129.23 16.2667C128.774 15.8349 128.547 15.2578 128.547 14.5335V11.4002C128.547 10.6866 128.774 10.1095 129.23 9.66696C129.685 9.22542 130.298 9.00369 131.069 9.00369C131.849 9.00369 132.464 9.22542 132.915 9.66696C133.365 10.1095 133.59 10.6866 133.59 11.4002V13.4045C133.59 13.5052 133.54 13.5556 133.44 13.5556M138.485 9.2138C138.555 9.25447 138.58 9.32032 138.561 9.41037L138.335 10.5558C138.325 10.6459 138.266 10.6759 138.155 10.6459C138.025 10.5955 137.875 10.5704 137.705 10.5704C137.594 10.5704 137.514 10.5752 137.464 10.5859C137.154 10.6256 136.897 10.8018 136.692 11.1126C136.486 11.4244 136.383 11.801 136.383 12.2435V16.6434C136.383 16.7441 136.334 16.7944 136.233 16.7944H135.092C134.993 16.7944 134.943 16.7441 134.943 16.6434V9.27481C134.943 9.17411 134.993 9.12376 135.092 9.12376H136.233C136.334 9.12376 136.384 9.17411 136.384 9.27481V10.1482C136.384 10.1782 136.392 10.1966 136.406 10.2014C136.421 10.2063 136.434 10.1937 136.445 10.1627C136.734 9.42005 137.199 9.0492 137.84 9.0492C138.09 9.0492 138.305 9.10342 138.485 9.2138ZM144.894 9.06372C144.894 9.10342 144.914 9.12376 144.955 9.12376H146.006C146.106 9.12376 146.156 9.17411 146.156 9.27481V10.0281C146.156 10.1288 146.106 10.1782 146.005 10.1782H144.954C144.915 10.1782 144.895 10.1985 144.895 10.2392V16.6434C144.895 16.7441 144.845 16.7944 144.745 16.7944H143.619C143.519 16.7944 143.469 16.7441 143.469 16.6434V10.2392C143.469 10.1985 143.449 10.1782 143.409 10.1782H142.853C142.753 10.1782 142.703 10.1288 142.703 10.0281V9.27481C142.703 9.17411 142.753 9.12376 142.853 9.12376H143.409C143.448 9.12376 143.469 9.10439 143.469 9.06372V8.67157C143.469 7.77785 143.654 7.13685 144.024 6.75051C144.395 6.3632 144.994 6.16954 145.826 6.16954H146.021C146.12 6.16954 146.17 6.21989 146.17 6.32059L146.141 7.24046C146.141 7.34019 146.09 7.39054 145.991 7.39054H145.84C145.51 7.39054 145.27 7.49899 145.12 7.71491C144.969 7.93084 144.895 8.26489 144.895 8.71708L144.894 9.06372ZM150.589 15.3101C150.795 15.0845 150.898 14.7901 150.898 14.4289V11.4883C150.898 11.1271 150.795 10.8308 150.589 10.5994C150.385 10.369 150.121 10.2528 149.801 10.2528C149.481 10.2528 149.219 10.369 149.013 10.5994C148.808 10.8318 148.706 11.1271 148.706 11.4883V14.427C148.706 14.7891 148.808 15.0835 149.014 15.3091C149.219 15.5347 149.481 15.648 149.801 15.648C150.121 15.648 150.385 15.5357 150.589 15.3101ZM147.948 16.2658C147.492 15.8339 147.265 15.2568 147.265 14.5326V11.4002C147.265 10.6866 147.495 10.1095 147.955 9.66696C148.415 9.22542 149.031 9.00369 149.801 9.00369C150.583 9.00369 151.2 9.22542 151.656 9.66696C152.111 10.1095 152.339 10.6866 152.339 11.4002V14.5345C152.339 15.2588 152.111 15.8359 151.656 16.2677C151.2 16.7005 150.583 16.9165 149.801 16.9165C149.021 16.9165 148.403 16.7005 147.948 16.2677M157.295 9.2138C157.365 9.25447 157.391 9.32032 157.37 9.41037L157.145 10.5558C157.135 10.6459 157.075 10.6759 156.965 10.6459C156.835 10.5955 156.685 10.5704 156.515 10.5704C156.404 10.5704 156.324 10.5752 156.274 10.5859C155.964 10.6256 155.707 10.8018 155.502 11.1126C155.296 11.4244 155.194 11.801 155.194 12.2435V16.6434C155.194 16.7441 155.143 16.7944 155.043 16.7944H153.902C153.803 16.7944 153.753 16.7441 153.753 16.6434V9.27481C153.753 9.17411 153.803 9.12376 153.902 9.12376H155.043C155.143 9.12376 155.194 9.17411 155.194 9.27481V10.1482C155.194 10.1782 155.201 10.1966 155.216 10.2014C155.231 10.2063 155.244 10.1937 155.254 10.1627C155.544 9.42005 156.009 9.0492 156.65 9.0492C156.9 9.0492 157.115 9.10342 157.295 9.2138ZM51.6011 34.7279V24.4816C51.6011 24.3809 51.6513 24.3306 51.7506 24.3306H52.907C52.987 24.3306 53.042 24.3712 53.0719 24.4516L55.7434 31.0978C55.7531 31.1269 55.7685 31.1404 55.7887 31.1346C55.808 31.1298 55.8186 31.1124 55.8186 31.0823V24.4816C55.8186 24.3809 55.8688 24.3306 55.9691 24.3306H57.0946C57.1949 24.3306 57.2451 24.3809 57.2451 24.4816V34.7289C57.2451 34.8296 57.1949 34.8799 57.0946 34.8799H55.9238C55.8437 34.8799 55.7887 34.8402 55.7598 34.7599L53.0873 28.1136C53.0777 28.0836 53.0623 28.0681 53.042 28.0681C53.0227 28.0681 53.0121 28.0836 53.0121 28.1136L53.0266 34.7289C53.0266 34.8296 52.9764 34.8799 52.8771 34.8799H51.7506C51.6513 34.8799 51.6011 34.8286 51.6011 34.7279ZM62.075 33.3946C62.2805 33.169 62.3836 32.8746 62.3836 32.5135V29.5747C62.3836 29.2126 62.2805 28.9163 62.075 28.6849C61.8706 28.4544 61.6073 28.3383 61.2871 28.3383C60.9669 28.3383 60.7045 28.4544 60.4991 28.6849C60.2937 28.9173 60.1915 29.2126 60.1915 29.5747V32.5135C60.1915 32.8746 60.2937 33.169 60.5001 33.3946C60.7045 33.6202 60.9669 33.7335 61.2871 33.7335C61.6073 33.7335 61.8706 33.6202 62.075 33.3946ZM59.4324 34.3513C58.9782 33.9194 58.7506 33.3423 58.7506 32.618V29.4837C58.7506 28.7701 58.9801 28.193 59.4411 27.7505C59.9012 27.309 60.5165 27.0872 61.2871 27.0872C62.0683 27.0872 62.6855 27.309 63.1407 27.7505C63.596 28.193 63.8236 28.7701 63.8236 29.4837V32.618C63.8236 33.3423 63.596 33.9194 63.1407 34.3513C62.6855 34.7841 62.0683 35 61.2871 35C60.5059 35 59.8886 34.7841 59.4334 34.3513M68.1723 28.2627H67.122C67.0815 28.2627 67.0622 28.2831 67.0622 28.3237V32.558C67.0622 32.9598 67.1316 33.2387 67.2724 33.3946C67.4123 33.5505 67.6322 33.6231 67.9321 33.6134H68.0671C68.1675 33.6134 68.2176 33.6638 68.2176 33.7635V34.7279C68.2176 34.8286 68.1675 34.879 68.0671 34.879H67.6023C66.9619 34.879 66.4787 34.7531 66.1537 34.5023C65.8287 34.2506 65.6657 33.7742 65.6657 33.0702V28.3237C65.6657 28.2831 65.6464 28.2627 65.6059 28.2627H65.0205C64.9201 28.2627 64.87 28.2133 64.87 28.1126V27.3593C64.87 27.2586 64.9201 27.2083 65.0205 27.2083H65.6059C65.6454 27.2083 65.6657 27.1889 65.6657 27.1482V25.4441C65.6657 25.3443 65.7158 25.294 65.8161 25.294H66.9117C67.012 25.294 67.0622 25.3443 67.0622 25.445V27.1482C67.0622 27.1879 67.0815 27.2083 67.122 27.2083H68.1732C68.2726 27.2083 68.3227 27.2586 68.3227 27.3593V28.1126C68.3227 28.2133 68.2716 28.2627 68.1723 28.2627ZM68.7577 30.7502V29.8004C68.7577 29.6996 68.8078 29.6493 68.9081 29.6493H72.5412C72.6406 29.6493 72.6907 29.6996 72.6907 29.8004V30.7493C72.6907 30.85 72.6406 30.9003 72.5412 30.9003H68.9081C68.8078 30.9003 68.7577 30.85 68.7577 30.7502ZM75.5879 27.1482C75.5879 27.1879 75.6072 27.2083 75.6477 27.2083H76.699C76.7983 27.2083 76.8485 27.2586 76.8485 27.3593V28.1126C76.8485 28.2133 76.7983 28.2627 76.699 28.2627H75.6477C75.6082 28.2627 75.5879 28.2831 75.5879 28.3237V34.7289C75.5879 34.8286 75.5378 34.879 75.4375 34.879H74.312C74.2117 34.879 74.1615 34.8286 74.1615 34.7289V28.3237C74.1615 28.2831 74.1422 28.2627 74.1017 28.2627H73.5462C73.4459 28.2627 73.3967 28.2133 73.3967 28.1126V27.3593C73.3967 27.2586 73.4459 27.2083 73.5462 27.2083H74.1017C74.1412 27.2083 74.1615 27.1889 74.1615 27.1482V26.7561C74.1615 25.8624 74.3467 25.2214 74.717 24.835C75.0874 24.4477 75.6882 24.2541 76.5186 24.2541H76.7134C76.8137 24.2541 76.8639 24.3044 76.8639 24.4051L76.834 25.325C76.834 25.4247 76.7838 25.4751 76.6835 25.4751H76.5331C76.2032 25.4751 75.9641 25.5835 75.8136 25.7994C75.6631 26.0154 75.5879 26.3494 75.5879 26.8016V27.1482ZM81.283 33.3946C81.4874 33.169 81.5916 32.8746 81.5916 32.5135V29.5747C81.5916 29.2126 81.4874 28.9163 81.283 28.6849C81.0776 28.4544 80.8152 28.3383 80.495 28.3383C80.1748 28.3383 79.9115 28.4544 79.7071 28.6849C79.5017 28.9173 79.3985 29.2126 79.3985 29.5747V32.5135C79.3985 32.8746 79.5017 33.169 79.7071 33.3946C79.9115 33.6202 80.1748 33.7335 80.495 33.7335C80.8152 33.7335 81.0776 33.6202 81.283 33.3946ZM78.6404 34.3513C78.1852 33.9194 77.9585 33.3423 77.9585 32.618V29.4837C77.9585 28.7701 78.1881 28.193 78.6481 27.7505C79.1091 27.309 79.7244 27.0872 80.495 27.0872C81.2762 27.0872 81.8935 27.309 82.3487 27.7505C82.8039 28.193 83.0315 28.7701 83.0315 29.4837V32.618C83.0315 33.3423 82.8039 33.9194 82.3487 34.3513C81.8935 34.7841 81.2753 35 80.495 35C79.7138 35 79.0956 34.7841 78.6404 34.3513ZM87.9878 27.2993C88.0582 27.338 88.0833 27.4039 88.0631 27.4949L87.8383 28.6404C87.8287 28.7304 87.7679 28.7604 87.658 28.7304C87.5278 28.6801 87.3783 28.6549 87.2076 28.6549C87.0977 28.6549 87.0176 28.6597 86.9675 28.6704C86.6569 28.7101 86.3994 28.8863 86.194 29.1971C85.9895 29.5089 85.8863 29.8856 85.8863 30.3281V34.7289C85.8863 34.8286 85.8362 34.879 85.7368 34.879H84.5959C84.4956 34.879 84.4454 34.8286 84.4454 34.7289V27.3593C84.4454 27.2586 84.4956 27.2083 84.5959 27.2083H85.7368C85.8362 27.2083 85.8863 27.2586 85.8863 27.3593V28.2327C85.8863 28.2627 85.894 28.2811 85.9095 28.286C85.9239 28.2908 85.9365 28.2782 85.9471 28.2472C86.2364 27.5046 86.7022 27.1337 87.3426 27.1337C87.5934 27.1337 87.8085 27.1879 87.9888 27.2983M87.9975 30.7502V29.8004C87.9975 29.6996 88.0467 29.6493 88.147 29.6493H91.7801C91.8794 29.6493 91.9295 29.6996 91.9295 29.8004V30.7493C91.9295 30.85 91.8794 30.9003 91.7801 30.9003H88.146C88.0457 30.9003 87.9975 30.85 87.9975 30.7502ZM96.9321 28.6626C97.1829 28.346 97.3083 27.9171 97.3083 27.3748C97.3083 26.8219 97.1829 26.3823 96.9321 26.0551C96.6823 25.7287 96.3525 25.5651 95.9416 25.5651H94.8316C94.7911 25.5651 94.7718 25.5854 94.7718 25.6261V29.077C94.7718 29.1167 94.7911 29.1371 94.8316 29.1371H95.9416C96.3525 29.1371 96.6814 28.9793 96.9321 28.6626ZM98.0364 25.1507C98.5109 25.7084 98.7492 26.4395 98.7492 27.3438C98.7492 28.2279 98.5187 28.9415 98.0586 29.4837C97.5986 30.026 96.9929 30.2971 96.2426 30.2971H94.8316C94.7911 30.2971 94.7718 30.3174 94.7718 30.3581V34.7279C94.7718 34.8286 94.7207 34.879 94.6213 34.879H93.4794C93.3791 34.879 93.329 34.8286 93.329 34.7279V24.4651C93.329 24.3654 93.3791 24.3151 93.4794 24.3151H96.1664C96.937 24.3151 97.561 24.5939 98.0364 25.1507ZM103.608 27.2993C103.677 27.338 103.703 27.4039 103.683 27.4949L103.458 28.6404C103.448 28.7304 103.387 28.7604 103.277 28.7304C103.147 28.6801 102.998 28.6549 102.827 28.6549C102.717 28.6549 102.637 28.6597 102.587 28.6704C102.277 28.7101 102.02 28.8863 101.814 29.1971C101.609 29.5089 101.506 29.8856 101.506 30.3281V34.7289C101.506 34.8286 101.456 34.879 101.356 34.879H100.215C100.115 34.879 100.066 34.8286 100.066 34.7289V27.3593C100.066 27.2586 100.115 27.2083 100.215 27.2083H101.356C101.456 27.2083 101.507 27.2586 101.507 27.3593V28.2327C101.507 28.2627 101.514 28.2811 101.529 28.286C101.544 28.2908 101.557 28.2782 101.567 28.2472C101.857 27.5046 102.321 27.1337 102.963 27.1337C103.213 27.1337 103.428 27.1889 103.608 27.2993ZM107.963 33.3946C108.167 33.169 108.27 32.8746 108.27 32.5135V29.5747C108.27 29.2126 108.167 28.9163 107.962 28.6849C107.757 28.4544 107.495 28.3383 107.175 28.3383C106.853 28.3383 106.591 28.4544 106.387 28.6849C106.181 28.9173 106.078 29.2126 106.078 29.5747V32.5135C106.078 32.8746 106.181 33.169 106.387 33.3946C106.591 33.6202 106.853 33.7335 107.175 33.7335C107.495 33.7335 107.757 33.6202 107.963 33.3946ZM105.32 34.3513C104.865 33.9194 104.637 33.3423 104.637 32.618V29.4837C104.637 28.7701 104.868 28.193 105.328 27.7505C105.788 27.309 106.403 27.0872 107.175 27.0872C107.955 27.0872 108.573 27.309 109.028 27.7505C109.483 28.193 109.711 28.7701 109.711 29.4837V32.618C109.711 33.3423 109.483 33.9194 109.028 34.3513C108.572 34.7841 107.955 35 107.175 35C106.393 35 105.776 34.7841 105.32 34.3513ZM115.575 34.7279V27.3593C115.575 27.2586 115.624 27.2083 115.724 27.2083H116.865C116.966 27.2083 117.016 27.2586 117.016 27.3593V34.7279C117.016 34.8286 116.966 34.879 116.865 34.879H115.724C115.624 34.879 115.574 34.8286 115.574 34.7279H115.575ZM115.635 25.8062C115.464 25.6261 115.379 25.3947 115.379 25.1139C115.379 24.8331 115.464 24.6036 115.635 24.4274C115.804 24.2521 116.024 24.164 116.294 24.164C116.564 24.164 116.782 24.2512 116.947 24.4274C117.113 24.6036 117.195 24.8321 117.195 25.1139C117.195 25.4044 117.113 25.6387 116.947 25.814C116.783 25.9902 116.565 26.0783 116.294 26.0783C116.024 26.0783 115.804 25.9863 115.635 25.8062ZM113.008 27.1482C113.008 27.1879 113.027 27.2083 113.067 27.2083H114.119C114.218 27.2083 114.268 27.2586 114.268 27.3593V28.1126C114.268 28.2133 114.218 28.2627 114.119 28.2627H113.067C113.027 28.2627 113.008 28.2831 113.008 28.3237V34.7279C113.008 34.8286 112.957 34.879 112.857 34.879H111.732C111.631 34.879 111.581 34.8286 111.581 34.7279V28.3237C111.581 28.2831 111.562 28.2627 111.521 28.2627H110.966C110.866 28.2627 110.816 28.2133 110.816 28.1126V27.3593C110.816 27.2586 110.866 27.2083 110.966 27.2083H111.521C111.561 27.2083 111.581 27.1889 111.581 27.1482V26.7561C111.581 25.8624 111.766 25.2214 112.137 24.835C112.507 24.4477 113.107 24.2541 113.938 24.2541H114.133C114.233 24.2541 114.284 24.3044 114.284 24.4051L114.254 25.325C114.254 25.4247 114.203 25.4751 114.103 25.4751H113.953C113.623 25.4751 113.383 25.5835 113.232 25.7994C113.083 26.0154 113.008 26.3494 113.008 26.8016V27.1482ZM121.614 28.2627H120.563C120.524 28.2627 120.504 28.2831 120.504 28.3237V32.558C120.504 32.9598 120.574 33.2387 120.714 33.3946C120.854 33.5505 121.074 33.6231 121.374 33.6134H121.509C121.609 33.6134 121.66 33.6638 121.66 33.7635V34.7279C121.66 34.8286 121.609 34.879 121.509 34.879H121.044C120.404 34.879 119.921 34.7531 119.596 34.5023C119.271 34.2506 119.108 33.7742 119.108 33.0702V28.3237C119.108 28.2831 119.088 28.2627 119.048 28.2627H118.462C118.362 28.2627 118.312 28.2133 118.312 28.1126V27.3593C118.312 27.2586 118.362 27.2083 118.462 27.2083H119.048C119.087 27.2083 119.108 27.1889 119.108 27.1482V25.4441C119.108 25.3443 119.158 25.294 119.258 25.294H120.354C120.453 25.294 120.504 25.3443 120.504 25.445V27.1482C120.504 27.1879 120.524 27.2083 120.564 27.2083H121.615C121.715 27.2083 121.765 27.2586 121.765 27.3593V28.1126C121.765 28.2133 121.715 28.2627 121.614 28.2627ZM126.658 34.7279V24.4816C126.658 24.3809 126.709 24.3306 126.808 24.3306H127.949C128.049 24.3306 128.099 24.3809 128.099 24.4816V33.5689C128.099 33.6096 128.119 33.6289 128.159 33.6289H131.521C131.621 33.6289 131.672 33.6793 131.672 33.78V34.7289C131.672 34.8296 131.621 34.8799 131.521 34.8799H126.808C126.709 34.8799 126.658 34.8286 126.658 34.7279ZM136.091 33.4023C136.351 33.1816 136.481 32.8698 136.481 32.468V31.4435C136.481 31.4028 136.461 31.3825 136.422 31.3825H135.505C135.105 31.3825 134.785 31.491 134.545 31.7069C134.305 31.9228 134.185 32.2365 134.185 32.649C134.185 33.0102 134.275 33.2813 134.455 33.4624C134.634 33.6434 134.875 33.7335 135.175 33.7335C135.526 33.7335 135.831 33.6231 136.092 33.4023M137.224 27.7805C137.69 28.2434 137.922 28.8505 137.922 29.6048V34.7289C137.922 34.8286 137.872 34.879 137.772 34.879H136.632C136.531 34.879 136.481 34.8286 136.481 34.7289V34.3968C136.481 34.3774 136.474 34.3619 136.459 34.3513C136.444 34.3416 136.426 34.3464 136.406 34.3667C136.056 34.7889 135.54 35 134.86 35C134.289 35 133.787 34.8364 133.352 34.5101C132.917 34.1837 132.699 33.6028 132.699 32.7691C132.699 31.8947 132.961 31.2547 133.487 30.848C134.012 30.4413 134.7 30.238 135.551 30.238H136.422C136.461 30.238 136.481 30.2177 136.481 30.177V29.7403C136.481 29.3181 136.381 28.9793 136.181 28.7236C135.981 28.467 135.72 28.3383 135.4 28.3383C135.149 28.3383 134.94 28.4244 134.77 28.5948C134.6 28.7653 134.5 28.987 134.469 29.2581C134.469 29.3588 134.419 29.4082 134.32 29.4082H133.105C133.003 29.4082 132.953 29.3588 132.953 29.2581C133.003 28.6152 133.259 28.0923 133.719 27.6905C134.179 27.2886 134.75 27.0872 135.431 27.0872C136.161 27.0872 136.758 27.3196 137.224 27.7805ZM140.51 34.7434L138.904 27.3748V27.3438C138.904 27.2538 138.949 27.2083 139.039 27.2083H140.135C140.235 27.2083 140.289 27.2538 140.3 27.3438L141.23 32.7391C141.24 32.7584 141.25 32.7691 141.26 32.7691C141.27 32.7691 141.28 32.7594 141.29 32.7391L142.235 27.3438C142.256 27.2538 142.311 27.2083 142.401 27.2083H143.392C143.492 27.2083 143.547 27.2538 143.557 27.3438L144.533 32.7391C144.542 32.7584 144.553 32.7691 144.562 32.7691C144.572 32.7691 144.583 32.7594 144.593 32.7391L145.538 27.3438C145.558 27.2538 145.614 27.2083 145.703 27.2083L146.769 27.2238C146.879 27.2238 146.924 27.279 146.904 27.3884L145.298 34.7434C145.289 34.8335 145.233 34.879 145.133 34.879H144.022C143.933 34.879 143.878 34.8335 143.857 34.7434L142.897 29.7858C142.887 29.7655 142.877 29.7548 142.867 29.7548C142.857 29.7548 142.847 29.7645 142.837 29.7849L141.921 34.7434C141.911 34.8335 141.856 34.879 141.756 34.879H140.676C140.585 34.879 140.53 34.8335 140.51 34.7434Z" fill="white"/>
</svg>
