<svg width="28" height="28" viewBox="0 0 28 28" fill="none" xmlns="http://www.w3.org/2000/svg">
<path d="M15.875 20.2498V16.4998C15.875 16.334 15.8092 16.1751 15.6919 16.0579C15.5747 15.9406 15.4158 15.8748 15.25 15.8748H12.75C12.5842 15.8748 12.4253 15.9406 12.3081 16.0579C12.1908 16.1751 12.125 16.334 12.125 16.4998V20.2498C12.125 20.4156 12.0592 20.5745 11.9419 20.6917C11.8247 20.809 11.6658 20.8748 11.5 20.8748H7.75C7.58424 20.8748 7.42527 20.809 7.30806 20.6917C7.19085 20.5745 7.125 20.4156 7.125 20.2498V13.0232C7.1264 12.9367 7.14509 12.8514 7.17998 12.7722C7.21486 12.6931 7.26523 12.6217 7.32812 12.5623L13.5781 6.88261C13.6933 6.77721 13.8438 6.71875 14 6.71875C14.1562 6.71875 14.3067 6.77721 14.4219 6.88261L20.6719 12.5623C20.7348 12.6217 20.7851 12.6931 20.82 12.7722C20.8549 12.8514 20.8736 12.9367 20.875 13.0232V20.2498C20.875 20.4156 20.8092 20.5745 20.6919 20.6917C20.5747 20.809 20.4158 20.8748 20.25 20.8748H16.5C16.3342 20.8748 16.1753 20.809 16.0581 20.6917C15.9408 20.5745 15.875 20.4156 15.875 20.2498Z" stroke="#667085" stroke-width="1.25" stroke-linecap="round" stroke-linejoin="round"/>
</svg>
