<svg width="36" height="36" viewBox="0 0 36 36" fill="none" xmlns="http://www.w3.org/2000/svg">
<path d="M15.5 24.8749H11.75C11.5842 24.8749 11.4253 24.8091 11.3081 24.6919C11.1909 24.5747 11.125 24.4157 11.125 24.2499V20.7577C11.1247 20.6766 11.1404 20.5962 11.1713 20.5211C11.2021 20.446 11.2474 20.3778 11.3047 20.3202L20.6797 10.9452C20.7378 10.8862 20.8072 10.8393 20.8836 10.8073C20.9601 10.7753 21.0421 10.7588 21.125 10.7588C21.2079 10.7588 21.2899 10.7753 21.3664 10.8073C21.4428 10.8393 21.5122 10.8862 21.5703 10.9452L25.0547 14.4296C25.1137 14.4878 25.1606 14.5571 25.1927 14.6335C25.2247 14.71 25.2411 14.792 25.2411 14.8749C25.2411 14.9578 25.2247 15.0399 25.1927 15.1163C25.1606 15.1928 25.1137 15.2621 25.0547 15.3202L15.5 24.8749Z" stroke="#667085" stroke-width="1.5" stroke-linecap="round" stroke-linejoin="round"/>
<path d="M24.875 24.875H15.5" stroke="#667085" stroke-width="1.5" stroke-linecap="round" stroke-linejoin="round"/>
<path d="M18.625 13L23 17.375" stroke="#667085" stroke-width="1.5" stroke-linecap="round" stroke-linejoin="round"/>
</svg>
