<svg width="16" height="16" viewBox="0 0 16 16" fill="none" xmlns="http://www.w3.org/2000/svg">
<g clip-path="url(#clip0_21_9)">
<path d="M5.49963 5.49918C5.63224 5.49918 5.75942 5.55185 5.85319 5.64562C5.94696 5.73939 5.99963 5.86657 5.99963 5.99918V11.9992C5.99963 12.1318 5.94696 12.259 5.85319 12.3527C5.75942 12.4465 5.63224 12.4992 5.49963 12.4992C5.36703 12.4992 5.23985 12.4465 5.14608 12.3527C5.05231 12.259 4.99963 12.1318 4.99963 11.9992V5.99918C4.99963 5.86657 5.05231 5.73939 5.14608 5.64562C5.23985 5.55185 5.36703 5.49918 5.49963 5.49918ZM7.99963 5.49918C8.13224 5.49918 8.25942 5.55185 8.35319 5.64562C8.44696 5.73939 8.49963 5.86657 8.49963 5.99918V11.9992C8.49963 12.1318 8.44696 12.259 8.35319 12.3527C8.25942 12.4465 8.13224 12.4992 7.99963 12.4992C7.86703 12.4992 7.73985 12.4465 7.64608 12.3527C7.55231 12.259 7.49963 12.1318 7.49963 11.9992V5.99918C7.49963 5.86657 7.55231 5.73939 7.64608 5.64562C7.73985 5.55185 7.86703 5.49918 7.99963 5.49918ZM10.9996 5.99918C10.9996 5.86657 10.947 5.73939 10.8532 5.64562C10.7594 5.55185 10.6322 5.49918 10.4996 5.49918C10.367 5.49918 10.2398 5.55185 10.1461 5.64562C10.0523 5.73939 9.99963 5.86657 9.99963 5.99918V11.9992C9.99963 12.1318 10.0523 12.259 10.1461 12.3527C10.2398 12.4465 10.367 12.4992 10.4996 12.4992C10.6322 12.4992 10.7594 12.4465 10.8532 12.3527C10.947 12.259 10.9996 12.1318 10.9996 11.9992V5.99918Z" fill="white"/>
<path fill-rule="evenodd" clip-rule="evenodd" d="M14.4996 2.99918C14.4996 3.26439 14.3943 3.51875 14.2067 3.70628C14.0192 3.89382 13.7649 3.99918 13.4996 3.99918H12.9996V12.9992C12.9996 13.5296 12.7889 14.0383 12.4138 14.4134C12.0388 14.7885 11.5301 14.9992 10.9996 14.9992H4.99963C4.4692 14.9992 3.96049 14.7885 3.58542 14.4134C3.21035 14.0383 2.99963 13.5296 2.99963 12.9992V3.99918H2.49963C2.23442 3.99918 1.98006 3.89382 1.79253 3.70628C1.60499 3.51875 1.49963 3.26439 1.49963 2.99918V1.99918C1.49963 1.73396 1.60499 1.47961 1.79253 1.29207C1.98006 1.10453 2.23442 0.999176 2.49963 0.999176H5.99963C5.99963 0.73396 6.10499 0.479606 6.29253 0.292069C6.48006 0.104533 6.73442 -0.000823975 6.99963 -0.000823975H8.99963C9.26485 -0.000823975 9.5192 0.104533 9.70674 0.292069C9.89428 0.479606 9.99963 0.73396 9.99963 0.999176H13.4996C13.7649 0.999176 14.0192 1.10453 14.2067 1.29207C14.3943 1.47961 14.4996 1.73396 14.4996 1.99918V2.99918ZM4.11763 3.99918L3.99963 4.05818V12.9992C3.99963 13.2644 4.10499 13.5187 4.29253 13.7063C4.48006 13.8938 4.73442 13.9992 4.99963 13.9992H10.9996C11.2649 13.9992 11.5192 13.8938 11.7067 13.7063C11.8943 13.5187 11.9996 13.2644 11.9996 12.9992V4.05818L11.8816 3.99918H4.11763ZM2.49963 2.99918V1.99918H13.4996V2.99918H2.49963Z" fill="white"/>
</g>
<defs>
<clipPath id="clip0_21_9">
<rect width="16" height="16" fill="white"/>
</clipPath>
</defs>
</svg>