<svg width="20" height="20" viewBox="0 0 20 20" fill="none" xmlns="http://www.w3.org/2000/svg">
<path d="M3.28911 3.75H16.711C16.8322 3.75004 16.9508 3.78533 17.0523 3.85159C17.1539 3.91784 17.2339 4.01219 17.2828 4.12315C17.3316 4.2341 17.3472 4.35687 17.3275 4.47649C17.3078 4.59611 17.2538 4.70743 17.1719 4.79688L12.0391 10.4453C11.9323 10.5597 11.8735 10.7107 11.875 10.8672V15.2891C11.876 15.3929 11.8507 15.4954 11.8016 15.5869C11.7524 15.6784 11.6809 15.756 11.5938 15.8125L9.0938 17.4766C9.00002 17.5383 8.89133 17.5737 8.77916 17.5789C8.66699 17.5842 8.55548 17.5591 8.45636 17.5063C8.35723 17.4536 8.27415 17.3751 8.21585 17.2791C8.15755 17.1831 8.12618 17.0732 8.12505 16.9609V10.8672C8.12655 10.7107 8.06781 10.5597 7.96098 10.4453L2.82817 4.79688C2.74634 4.70743 2.69229 4.59611 2.6726 4.47649C2.65292 4.35687 2.66845 4.2341 2.7173 4.12315C2.76615 4.01219 2.84622 3.91784 2.94774 3.85159C3.04927 3.78533 3.16788 3.75004 3.28911 3.75V3.75Z" stroke="#667085" stroke-width="1.5" stroke-linecap="round" stroke-linejoin="round"/>
</svg>
