<svg width="24" height="24" viewBox="0 0 24 24" fill="none" xmlns="http://www.w3.org/2000/svg">
<path d="M15 7.5L7.19063 15.4406C6.9321 15.726 6.79318 16.0998 6.80266 16.4847C6.81214 16.8697 6.96928 17.2362 7.24155 17.5085C7.51382 17.7807 7.88036 17.9379 8.26529 17.9473C8.65022 17.9568 9.02405 17.8179 9.30939 17.5594L18.6188 8.11875C19.1358 7.54808 19.4137 6.80041 19.3947 6.03055C19.3758 5.2607 19.0615 4.52761 18.5169 3.98308C17.9724 3.43854 17.2393 3.12426 16.4695 3.1053C15.6996 3.08635 14.9519 3.36417 14.3813 3.88125L5.07189 13.3219C4.22899 14.1648 3.75546 15.308 3.75546 16.5C3.75546 17.692 4.22899 18.8352 5.07189 19.6781C5.91478 20.521 7.05798 20.9945 8.25001 20.9945C9.44204 20.9945 10.5852 20.521 11.4281 19.6781L19.125 12" stroke="#004677" stroke-width="1.5" stroke-linecap="round" stroke-linejoin="round"/>
</svg>
