<svg width="24" height="24" viewBox="0 0 24 24" fill="none" xmlns="http://www.w3.org/2000/svg">
<path d="M20.9438 10.6875L5.14689 1.84687C4.88368 1.69338 4.58059 1.62208 4.27655 1.64213C3.97252 1.66217 3.68142 1.77265 3.44064 1.95937C3.19474 2.15339 3.0162 2.41993 2.93037 2.72117C2.84455 3.0224 2.85579 3.34302 2.96251 3.6375L5.59689 10.9969C5.62354 11.0703 5.6719 11.1338 5.73554 11.179C5.79918 11.2242 5.87508 11.249 5.95314 11.25H12.7219C12.9165 11.2469 13.105 11.3178 13.2495 11.4483C13.3939 11.5788 13.4834 11.7592 13.5 11.9531C13.5064 12.0555 13.4918 12.1581 13.457 12.2546C13.4222 12.351 13.3679 12.4393 13.2976 12.514C13.2273 12.5887 13.1425 12.6482 13.0483 12.6888C12.9541 12.7294 12.8526 12.7502 12.75 12.75H5.95314C5.87508 12.751 5.79918 12.7758 5.73554 12.821C5.6719 12.8662 5.62354 12.9297 5.59689 13.0031L2.96251 20.3625C2.88347 20.5892 2.85965 20.8315 2.89304 21.0693C2.92642 21.3071 3.01605 21.5334 3.15448 21.7296C3.2929 21.9258 3.47614 22.0861 3.68895 22.1973C3.90177 22.3084 4.13804 22.3672 4.37814 22.3688C4.63363 22.3676 4.88486 22.3032 5.10939 22.1813L20.9438 13.3125C21.1757 13.1808 21.3687 12.9899 21.5029 12.7593C21.6371 12.5288 21.7078 12.2668 21.7078 12C21.7078 11.7332 21.6371 11.4712 21.5029 11.2407C21.3687 11.0101 21.1757 10.8192 20.9438 10.6875V10.6875Z" fill="#004677"/>
</svg>
