<svg width="16" height="16" viewBox="0 0 16 16" fill="none" xmlns="http://www.w3.org/2000/svg">
<path d="M3 2.5L13 13.5" stroke="#004677" stroke-width="1.5" stroke-linecap="round" stroke-linejoin="round"/>
<path d="M9.68098 9.85039C9.22219 10.2707 8.62193 10.5028 7.99973 10.5004C7.49515 10.5003 7.00239 10.3476 6.58624 10.0623C6.17008 9.7769 5.85001 9.37231 5.66811 8.90165C5.4862 8.431 5.45097 7.91631 5.56705 7.42526C5.68313 6.93421 5.94509 6.48978 6.31848 6.15039" stroke="#004677" stroke-width="1.5" stroke-linecap="round" stroke-linejoin="round"/>
<path d="M4.625 4.28711C2.075 5.57461 1 7.99961 1 7.99961C1 7.99961 3 12.4996 8 12.4996C9.17161 12.5092 10.3286 12.2392 11.375 11.7121" stroke="#004677" stroke-width="1.5" stroke-linecap="round" stroke-linejoin="round"/>
<path d="M13.0373 10.5688C14.3998 9.35002 14.9998 8.00002 14.9998 8.00002C14.9998 8.00002 12.9998 3.50002 7.9998 3.50002C7.56634 3.49916 7.13357 3.5347 6.70605 3.60627" stroke="#004677" stroke-width="1.5" stroke-linecap="round" stroke-linejoin="round"/>
<path d="M8.46875 5.54297C9.0004 5.6437 9.48487 5.91463 9.84903 6.31487C10.2132 6.71511 10.4373 7.22294 10.4875 7.76172" stroke="#004677" stroke-width="1.5" stroke-linecap="round" stroke-linejoin="round"/>
</svg>
